<svg version="1" xmlns="http://www.w3.org/2000/svg" width="933.333" height="933.333" viewBox="0 0 700.000000 700.000000"><path d="M153 1.1c-16.7 2.1-38.5 8.3-55.8 15.8-7.9 3.4-9.1 3.7-10.8 2.4-2.2-1.7-7.5-1.4-12.3.5C62.5 24.5 39 46.2 30.2 60.4c-3.6 5.7-5.3 13.8-3.3 15 .7.4-1.2 5.2-5.4 13.6-3.6 7.1-6.5 13.2-6.5 13.5 0 .4-.6 2.1-1.4 3.8-5 11.1-10 29.7-12.2 44.6-2.8 19.8-.6 44.6 5.6 63.2 11.3 33.8 37.3 64.4 73.4 86.4 5.6 3.4 11.2 6.8 12.6 7.6 1.4.8 2.7 1.6 3 1.9.9.9 5.2 3.2 20 10.5 20.6 10.3 55.8 25.1 90 38 20.1 7.5 32.6 12.3 46.8 17.8l13.3 5.2-11.3 10.9c-6.2 5.9-22.3 21.5-35.7 34.5-13.4 13-27.1 26.3-30.5 29.6-3.4 3.3-17.8 17.2-32 31-14.2 13.7-29.7 28.8-34.5 33.4-4.7 4.6-19.9 19.3-33.8 32.8-13.9 13.5-28.3 27.4-32 31-40.7 39.3-47.2 45.9-50 50.6C1.6 643 0 649.7.4 659.4 1.5 683.2 22 701.2 46 699.5c6.2-.4 9.6-1.3 16-4.4 6.2-2.9 2.4.6 64-59.1 4.8-4.7 20.8-20.2 35.6-34.5 14.7-14.3 33.3-32.4 41.3-40.1 8-7.8 18.2-17.7 22.7-22 4.5-4.4 20.4-19.8 35.4-34.4 15.1-14.6 33.9-32.8 41.9-40.5 24.9-24.1 31.7-31.2 33-34.2.8-2.1 3.1-4 7.7-6.4l6.4-3.4 6.4 3.4c4.5 2.4 6.9 4.3 7.7 6.3 1.5 3.7 6.1 8.2 74.9 74.8 2.6 2.5 17 16.5 32.1 31.1 15.1 14.7 31.7 30.8 36.9 35.8 5.2 5.1 19.6 19.1 32 31.1 12.4 12 25.7 24.8 29.5 28.5 3.9 3.8 14.7 14.3 24.1 23.4 35.7 34.8 37.9 36.7 44.8 40.1 8.4 4.2 20.9 5.2 30.1 2.6 18.4-5.4 30.7-22.1 30.7-41.8 0-13.6-4-21-20.1-36.8-11.8-11.6-53.4-51.9-69.6-67.5-3.8-3.7-14.5-14-23.6-22.9-9.1-8.8-28-27.1-41.8-40.6-13.9-13.5-28.5-27.6-32.4-31.4-4-3.8-18.7-18-32.7-31.6-14-13.6-29.9-29-35.4-34.2l-9.8-9.4 9.8-3.8c5.5-2.1 22.7-8.7 38.4-14.6 41.2-15.6 67.4-26.2 88-35.7 11.5-5.3 30.9-15.2 35.4-18.1 2.3-1.4 8.6-5.3 14.2-8.7 14.6-8.9 24.5-16.6 35.9-28 22.5-22.6 36.3-47.2 42-75.5 2.2-10.8 2.7-35.4 1-47.1-3-19.7-9.9-40.9-20.4-61.7-3.4-6.8-5.6-12.4-5.1-12.7 1.6-1 1.1-6.7-.9-11-5.8-12.6-30.4-37-44-43.7-5.7-2.8-11.5-3.4-14.4-1.5-1.9 1.2-2.7 1.3-4.8.2-9.2-4.9-37.7-14.3-47.9-16-1.9-.3-6-1-9-1.6-8.7-1.7-35.4-1.9-44.5-.4-49.8 8.1-87.6 37.6-115.5 90-2.4 4.4-5.9 11.1-8 15-7 13.3-25.5 60.1-32.7 83-.9 2.8-1 2.9-2 1-.6-1.1-2.5-6.3-4.3-11.5-12.3-36.5-22.3-60-38-89.5-25.6-48.2-61.9-77.3-108.5-87-9-1.9-35-2.7-45.5-1.4zm40.1 15.4c35 5.8 66.7 27.5 89.5 61.1 3.5 5.2 7.8 12.2 9.5 15.7 1.7 3.4 4.9 9.1 7 12.7 3.1 5.3 8.2 16.1 14.9 31.5 4.3 10.1 18.2 48.8 25.2 70.5l3 9.4-5.3 16.9-5.3 16.9-5.3-10.8c-2.9-6-5.2-11.2-5.3-11.6-.1-2.6-25.7-54.1-35.5-71.3-30.3-53.5-52.7-80.1-86-102.2-19.1-12.6-44.9-24.4-61-27.8-7.3-1.6-12.4-2.5-14.7-2.7-5.7-.5-3.2-1.7 10.7-5.3 8.2-2.1 16.5-3.4 26-4.2 4.4-.3 8.1-.6 8.2-.7.7-.6 17.4.8 24.4 1.9zm346.9-1c8.9.7 12.8 1.2 19.5 2.6 8.2 1.8 19.5 5.2 19.5 5.8 0 .4-1.6.8-3.6.9-4.4.3-14.7 2.6-22.9 5.2-21.2 6.5-50.5 22.6-70.5 38.7-26.4 21.3-52.9 59-83.2 118.3-5.2 10.2-12.2 24.6-15.5 32-9.5 21-14.3 31-14.7 31-.5 0-8.9-26.1-10.1-31-.4-1.7 1.5-8.8 5.8-21.5 17.5-51.6 27.3-75.3 41.7-101 2.8-5 5.4-9.8 5.7-10.8.3-.9.9-1.7 1.4-1.7.5 0 .9-.5.9-1.1 0-2.1 14.2-20.1 22.7-28.7 19.2-19.4 41.9-32.1 66.6-37.2 5.5-1.1 26-2.8 28.2-2.4.6.2 4.4.5 8.5.9zM129.3 40.6c36.7 7.5 80.4 34.7 104.8 65.4 21.2 26.7 50.2 76.9 70.5 122.2 6.6 14.7 10 22 15.5 33.1l4.8 9.7-3.2 9.2-3.3 9.1-4.6-6.4c-3.9-5.6-10.1-14.9-13.3-20.1-9.1-14.9-21.4-35.4-23.8-39.7-5.1-9.3-14.6-25-21.6-35.6-5.9-8.9-20.6-29.2-22-30.5-.3-.3-2.8-3.2-5.6-6.5-20-24.1-39.6-41.6-63-56.5-7.1-4.6-14.6-9.3-16.5-10.5-11.4-7.3-33.1-18.8-46-24.5-14.7-6.5-15.3-6.7-19.2-8-2.1-.6-3.8-1.4-3.8-1.6 0-1.5 4.7-6.4 6.9-7.4 9-3.7 29-4.4 43.4-1.4zm474.2-1.2c8 1.3 11.9 2.8 14.7 5.8 1.5 1.7 2.8 3.3 2.8 3.7 0 .4-4.4 2.4-9.7 4.5-21.1 8.2-49.4 23.3-77.1 41.2-40.7 26.4-74.9 65.7-109.5 126-15.6 27.2-27.5 46.5-38.4 62.1l-4.6 6.6-2.9-7.8c-1.6-4.3-2.9-8.7-3-9.9 0-1.1 3.7-10 8.4-19.6 4.7-9.6 10.2-21.3 12.3-26 8.7-19.6 31.9-64 41.6-79.5 15.3-24.6 31.2-45.7 43.5-57.6 20.8-20 55.4-39.8 82.4-47 11.6-3 29.1-4.2 39.5-2.5zM77.6 64.9c15.3 5.6 26.4 10.8 43.8 20.4 17.5 9.7 16.3 9 32.6 19.5 18.7 12 19.8 12.8 30.5 22.2 26.5 23.2 54.4 59.3 78 101 12.6 22.2 20.9 35.7 36.2 58.6l13.4 20.1-3.1 7.9c-1.8 4.4-3.3 8-3.5 8.2-.2.2-3.7-2.3-7.8-5.6-19.8-15.7-50.8-37.4-78.8-55.2-11.8-7.5-30-20.6-40.9-29.4-22.2-18-46.6-43.2-59.2-61.1-9.9-14-32.8-57.3-40.3-76-1.5-3.9-3.3-8.4-4-10-.7-1.7-2.5-7.1-3.9-12-1.5-5-2.9-9.6-3.1-10.3-.6-1.8 1.4-1.5 10.1 1.7zM632 63.3c0 3.8-8.3 27.7-14 40.2-12.5 27.7-35.5 68.5-43.5 77.1-.5.6-2.8 3.3-4.9 6-6.1 7.5-32.1 33.2-41.6 41-10.5 8.7-19.4 15.5-28.5 21.9-3.8 2.7-7.4 5.3-8 5.7-.5.5-3.7 2.5-7 4.7-26.8 17.1-56.9 37.6-64.5 43.8-.8.7-6.9 5.3-13.5 10.3l-12 9.1-1.7-4.1c-1-2.2-2.4-6.1-3.3-8.6l-1.5-4.5 3.8-5.2c3.5-4.9 18.5-27.2 20.7-30.9.5-.9 5.3-8.8 10.6-17.5s12.7-21.2 16.4-27.8c22.7-40.1 51.7-76.7 79.5-100.5 21.1-18 70.8-46.8 100-58 11.5-4.3 13-4.6 13-2.7zM57 79.2c2.6 8.5 8.7 24.3 13.3 34.3 9.3 20.4 28.1 54.5 36.5 66.5 21.6 30.8 57 63.3 98.7 90.8 37.3 24.5 54.1 36.1 72.4 50 10.7 8.1 19.9 15.4 20.4 16.3.8 1.2.5 2.9-1.1 6.2l-2.2 4.6-13.7-8c-7.6-4.5-16-9.3-18.8-10.9-19.2-10.7-25.8-14.2-39.5-21.3-8.5-4.4-15.9-8.3-16.5-8.7-.5-.4-4.6-2.7-9-5-4.4-2.4-15.1-8.6-23.8-13.9-8.7-5.3-16.6-10.1-17.5-10.6-1-.6-6-3.9-11.2-7.4-27.3-18.5-47.1-35-59.6-49.7-5.3-6.3-15.4-20.7-15.4-22 0-.4-.6-1.5-1.4-2.3-2-2.3-10.7-19.4-14.3-28.1-9-21.6-12.2-36.4-11.8-54.3.2-10.2 2.4-21.6 5.3-27.1 1.4-2.8 5-6.5 6.4-6.6.3 0 1.6 3.3 2.8 7.2zm592.6-4.4c4.7 4.2 7.7 16.4 7.8 31.2.1 13.7-.6 19.4-4 31.9-8.6 31.7-29.2 67-50.8 87-2.7 2.5-5.9 5.5-7 6.6-1.8 1.7-8.8 7.5-15.6 12.8-22.6 17.8-63.1 42.7-104.5 64.2-18 9.4-46.2 25-60 33.3-9 5.4-10.1 5.8-11.3 4.4-1.4-1.8-3.8-9-3.1-9.6 4.9-4.3 49.7-36.9 61.4-44.7 8.8-5.8 24.6-16.2 35-23.1 32.8-21.8 60.7-45.9 83-71.8 18.9-22 40-60.1 59-106.5.6-1.7 2.3-6.5 3.6-10.8 1.3-4.2 2.6-7.7 2.9-7.7.3 0 1.9 1.3 3.6 2.8zm-622 40.4c.3 16.7 8.7 43.8 21.1 67.8 17 33 37.9 55.8 76.3 83.1 10 7.1 38.6 25.9 39.4 25.9.2 0 3.3 1.8 6.8 3.9 11 6.7 29.5 16.8 51.8 28.3 19.3 10 49 26.8 61.3 34.5 4.4 2.8 4.4 2.8 3.1 6-.9 2.1-2.6 3.8-4.9 4.7-3.3 1.4-3.9 1.3-13-2.4-9-3.7-18.4-7.3-57.5-22-52-19.7-96.5-39.5-112.1-49.9-3.4-2.3-6.3-4.1-6.6-4.1-.2 0-5-3-10.6-6.7-32.1-21.2-54.6-49.6-63.1-79.8-3.6-13.1-3.8-14.4-4.1-32.5-.3-14.2 0-18.1 2-27.8 2.7-13.4 8.4-31.2 9.8-31.2.2 0 .3 1 .3 2.2zm646.7-.5c.2 1 2.1 7.1 4.1 13.5 1.9 6.5 4.2 15.7 5 20.5 1.5 9.5 1.9 34 .6 40.1-.5 2-1.1 5.3-1.4 7.3-1 6.7-6.7 22.3-11.3 30.9-7.7 14.4-14.5 23.4-26.8 35.6-20.3 19.9-53.9 40.3-97 58.7-16.4 7-52 21.2-60.5 24.3-8.7 3-37.5 14-53.2 20.2-14.8 5.9-17.4 5.8-20.8-.8l-1.9-3.7 18.2-10.6c24.5-14.2 31.5-18 50.2-27.7 18.6-9.6 26.1-13.6 33.3-17.9 2.9-1.7 5.4-3.1 5.6-3.1.4 0 12.2-7 22.9-13.6 10.2-6.1 36-23.5 43.9-29.5 23.3-17.6 40.2-34.6 52.1-52.5 9-13.5 16.7-27.4 21.2-38.4 1.5-3.6 3.3-7.9 4-9.5 4.6-10.4 9.7-32.6 9.8-42.8.1-3 1.2-3.6 2-1zM354.8 256.5l4.3 13.5-3.7 7.2c-5.6 11-5.1 10.9-10.1 1.3l-4.5-8.7 4.4-13.4c2.4-7.3 4.5-13.4 4.8-13.4.3 0 2.4 6.1 4.8 13.5zM339 298.2l2.5 4.8-2.5 4.6c-1.4 2.6-2.9 4.7-3.5 4.8-.5 0-2.2-1.8-3.9-4.1-2.9-4.2-2.9-4.2-1.3-8.5l2.7-7.2c1-2.8 1.1-2.8 2.3-1 .7 1 2.4 4 3.7 6.6zm30-.4l2.2 6.4-3.3 4.9-3.4 4.9-2.3-3.8c-3.7-6-3.7-7.5-.1-14.2 1.8-3.3 3.5-5.7 3.9-5.3.4.4 1.8 3.7 3 7.1zm-16.9 24.8c2.2 3.6 2.2 3.7.4 7l-1.8 3.4-2.4-2.2c-1.3-1.2-2.3-2.7-2.3-3.4 0-1.2 3.1-8.4 3.6-8.4.1 0 1.2 1.6 2.5 3.6zm-25.1 5.3c0 .7-1 3-2.1 5.1-2.1 3.7-2.3 3.8-4.5 2.3-2.9-1.9-2.9-1.9-.3-8.9l2.1-5.6 2.4 2.8c1.3 1.6 2.3 3.5 2.4 4.3zm52.8-2.1c2.5 6.9 2.5 7.1.1 9.1l-2.4 2-2.2-3.7c-2.9-4.6-2.9-5.7 0-9.2 2.6-3.2 2.6-3.2 4.5 1.8zM340 345.6c0 .6-.7 1.7-1.5 2.4-1.2 1-1.8 1-3 0-1.3-1.1-1.3-1.6.2-4.1 1.6-2.7 1.9-2.8 3-1.2.7.9 1.3 2.2 1.3 2.9zm24.8 2.1c-1.5 1.8-2.6 1.6-3.8-.7-.8-1.4-.8-2.6.1-4.1 1.1-2.1 1.1-2.1 3 .7 1.3 2.1 1.5 3.2.7 4.1zm-50.5 3.9c-.3.8-.9 1.4-1.4 1.4-.5 0-.9.6-.9 1.4 0 1.9-1.9 3.1-3.1 1.9-.5-.5-.2-2.6.8-5.1 1.5-4 1.7-4.1 3.4-2.6 1 .9 1.5 2.2 1.2 3zm77.1 4.5c-.9 1.5-1.8 1-4.1-2.5-2-3-2-3.5-.5-4.9 1.4-1.5 1.7-1.3 3.4 2.4 1 2.3 1.5 4.5 1.2 5zM351 359c0 .5-.4 1-1 1-.5 0-1-.5-1-1 0-.6.5-1 1-1 .6 0 1 .4 1 1zm-23 1.7c-.1 1.1-3.7 5.3-4.5 5.3-.3 0 .2-1.4 1.2-3 1.6-2.8 3.3-4 3.3-2.3zm47.5 2.3c.9 1.6 1.2 3 .7 3-.4 0-1.6-1.4-2.5-3-1-1.7-1.3-3-.8-3 .6 0 1.7 1.3 2.6 3zM351 381.5c0 .9-.6 1.2-1.6.8-1.3-.5-1.3-.7-.2-1.4 1.7-1.1 1.8-1.1 1.8.6zm.5 20.5c.3.5-.3 1-1.5 1s-1.8-.5-1.5-1c.3-.6 1-1 1.5-1s1.2.4 1.5 1z"/></svg>