<svg id="Layer_1" data-name="Layer 1" xmlns="http://www.w3.org/2000/svg" viewBox="0 0 232.54 233.49"><defs><style>.cls-1{fill:#1fbaed;}.cls-2{fill:#fff;}</style></defs><title>mixmixer_dark</title><path class="cls-1" d="M9.19,25.67a3.07,3.07,0,0,1-.58-1.82c0-3.32,5.19-8.71,7.44-10.87C22.64,6.65,27.11,4.6,29.33,6.91h0C44.49-.2,58.46-1.85,71,2.08c21.17,6.63,30.54,26.69,31.64,29.21,6.74,10.18,16.77,42.93,17.2,44.33,6.85,22.34,12.94,37.29,17.81,47.22a13.92,13.92,0,0,1,5.3,3.22l85.31,83a14.21,14.21,0,0,1-19.82,20.36l-85.3-83.05a14.07,14.07,0,0,1-2.77-3.89C110.78,137,95.79,129.69,72.2,121c-1.37-.5-33.53-12.29-43.34-19.57-2.45-1.24-22-11.68-27.46-33.18A45.82,45.82,0,0,1,0,57.63C-.13,47.56,3,36.87,9.19,25.67Zm7-.4C7.7,43.93,26.7,68.84,26.94,69.14c12.55,16.64,50,35,50.48,35.21a470.48,470.48,0,0,1,42.76,26l0-.05c-12.69-11.62-30.2-26.32-49-38C70.1,91.6,43.07,75.22,31.76,54c-.48-.8-10.09-16.91-13.59-30.15C17.46,24.41,16.78,24.87,16.14,25.27ZM36,51.61c10.72,20.1,37.47,36.32,37.78,36.5,16.92,10.54,32.84,23.48,45.2,34.5C108.64,109.64,96.5,93,86.84,75.4,86.7,75.12,72,47.53,52.36,35.67c-.2-.13-17.44-11.74-30-15.15C25,33.22,35.84,51.31,36,51.61ZM27.81,14.22c-.57.78-1.18,1.56-1.82,2.28,13,4.26,28.32,14.58,29,15.05C75.65,44.06,90.55,71.93,91.15,73.07c10.6,19.28,24.24,37.47,35.12,50.75l.1,0a472.76,472.76,0,0,1-23.53-43.95c-.16-.39-16.44-38.77-32.41-52.23C70.16,27.36,46.82,7.4,27.81,14.22Zm87.34,62.83c-.1-.34-10.37-33.87-16.7-43.22l-.23-.43C98.13,33.2,89.5,13,69.53,6.74c-9.1-2.85-19.15-2.4-30,1.3a49,49,0,0,1,14.66,3.87,81.39,81.39,0,0,1,19.45,12C90.45,38.06,106.67,76.3,107.3,77.81a457.81,457.81,0,0,0,23.9,44.4l.69-.07C127.11,112,121.43,97.52,115.15,77.05ZM6.13,67c5.13,20.24,24.89,30,25.09,30.13l.41.26c9,6.82,41.92,18.89,42.26,19,20.66,7.58,35,14.21,45,19.62,0-.2,0-.4,0-.6a453.84,453.84,0,0,0-43.75-26.77c-1.58-.77-38.88-19-52.12-36.57A81.65,81.65,0,0,1,12.14,52,48.63,48.63,0,0,1,9.07,37.15C4.79,47.8,3.79,57.8,6.13,67Z"/><path class="cls-2" d="M223.35,25.67a3.07,3.07,0,0,0,.59-1.82c0-3.32-5.2-8.71-7.45-10.87-6.59-6.33-11.05-8.38-13.27-6.07h0C188.05-.2,174.08-1.85,161.55,2.08,140.38,8.71,131,28.77,129.91,31.29c-6.74,10.18-16.77,42.93-17.19,44.33-6.86,22.34-13,37.29-17.82,47.22a14,14,0,0,0-5.3,3.22l-85.3,83a14.2,14.2,0,1,0,19.81,20.36l85.3-83.05a14.07,14.07,0,0,0,2.77-3.89c9.58-5.55,24.57-12.83,48.16-21.48,1.38-.5,33.53-12.29,43.34-19.57,2.45-1.24,22-11.68,27.46-33.18a45.82,45.82,0,0,0,1.4-10.66C232.67,47.56,229.59,36.87,223.35,25.67Zm-6.94-.4c8.43,18.66-10.56,43.57-10.8,43.87-12.55,16.64-50,35-50.48,35.21a467.66,467.66,0,0,0-42.76,26l0-.05c12.68-11.62,30.19-26.32,49-38,1.14-.69,28.17-17.07,39.48-38.27.48-.8,10.1-16.91,13.59-30.15C215.09,24.41,215.76,24.87,216.41,25.27ZM196.52,51.61c-10.72,20.1-37.47,36.32-37.77,36.5-16.93,10.54-32.84,23.48-45.21,34.5C123.91,109.64,136,93,145.7,75.4c.14-.28,14.89-27.87,34.49-39.73.19-.13,17.43-11.74,29.95-15.15C207.5,33.22,196.7,51.31,196.52,51.61Zm8.21-37.39c.57.78,1.19,1.56,1.82,2.28-13,4.26-28.31,14.58-29,15.05C156.89,44.06,142,71.93,141.39,73.07c-10.6,19.28-24.24,37.47-35.12,50.75l-.1,0a472.4,472.4,0,0,0,23.54-43.95c.16-.39,16.43-38.77,32.4-52.23C162.38,27.36,185.73,7.4,204.73,14.22ZM117.39,77.05c.11-.34,10.38-33.87,16.7-43.22l.23-.43C134.41,33.2,143,13,163,6.74c9.1-2.85,19.14-2.4,30,1.3a49.18,49.18,0,0,0-14.66,3.87,81.39,81.39,0,0,0-19.45,12c-16.84,14.19-33.05,52.43-33.69,53.94a455.61,455.61,0,0,1-23.9,44.4l-.69-.07C105.43,112,111.11,97.52,117.39,77.05Zm109-10c-5.13,20.24-24.89,30-25.08,30.13l-.42.26c-9,6.82-41.92,18.89-42.25,19-20.67,7.58-35,14.21-45,19.62,0-.2,0-.4,0-.6a452.17,452.17,0,0,1,43.74-26.77c1.58-.77,38.88-19,52.12-36.57A81.5,81.5,0,0,0,220.41,52a48.89,48.89,0,0,0,3.06-14.87C227.75,47.8,228.75,57.8,226.41,67Z"/></svg>